<?xml version="1.0" encoding="UTF-8"?>
<svg xmlns="http://www.w3.org/2000/svg" xmlns:xlink="http://www.w3.org/1999/xlink" width="32px" height="32px" viewBox="0 0 32 32" version="1.1">
<defs>
<linearGradient id="linear0" gradientUnits="userSpaceOnUse" x1="82.791901" y1="221.9021" x2="257.791901" y2="17.902" gradientTransform="matrix(0.111111,0,0,0.111111,0,0)">
<stop offset="0" style="stop-color:rgb(86.27451%,0%,16.470588%);stop-opacity:1;"/>
<stop offset="1" style="stop-color:rgb(98.823529%,74.117647%,0%);stop-opacity:1;"/>
</linearGradient>
<linearGradient id="linear1" gradientUnits="userSpaceOnUse" x1="96.756104" y1="233.881195" x2="271.756104" y2="29.881201" gradientTransform="matrix(0.111111,0,0,0.111111,0,0)">
<stop offset="0" style="stop-color:rgb(86.27451%,0%,16.470588%);stop-opacity:1;"/>
<stop offset="1" style="stop-color:rgb(98.823529%,74.117647%,0%);stop-opacity:1;"/>
</linearGradient>
<linearGradient id="linear2" gradientUnits="userSpaceOnUse" x1="136.224701" y1="116.9002" x2="205.224701" y2="58.9002" gradientTransform="matrix(0.111111,0,0,0.111111,0,0)">
<stop offset="0" style="stop-color:rgb(86.27451%,0%,16.470588%);stop-opacity:1;"/>
<stop offset="1" style="stop-color:rgb(98.823529%,74.117647%,0%);stop-opacity:1;"/>
</linearGradient>
<linearGradient id="linear3" gradientUnits="userSpaceOnUse" x1="194.704895" y1="93.914001" x2="212.538193" y2="68.414001" gradientTransform="matrix(0.111111,0,0,0.111111,0,0)">
<stop offset="0" style="stop-color:rgb(86.27451%,0%,16.470588%);stop-opacity:1;"/>
<stop offset="1" style="stop-color:rgb(98.823529%,74.117647%,0%);stop-opacity:1;"/>
</linearGradient>
</defs>
<g id="surface1">
<path style=" stroke:none;fill-rule:nonzero;fill:rgb(32.156864%,91.764706%,92.941177%);fill-opacity:1;" d="M 29.980469 16.265625 C 29.980469 8.4375 23.636719 2.089844 15.808594 2.089844 C 7.980469 2.089844 1.632812 8.4375 1.632812 16.265625 C 1.632812 24.09375 7.980469 30.4375 15.808594 30.4375 C 23.636719 30.4375 29.980469 24.09375 29.980469 16.265625 Z M 29.980469 16.265625 "/>
<path style=" stroke:none;fill-rule:nonzero;fill:rgb(5.098039%,12.156863%,18.431373%);fill-opacity:1;" d="M 28.917969 16.265625 C 28.917969 9.023438 23.050781 3.152344 15.808594 3.152344 C 8.566406 3.152344 2.695312 9.023438 2.695312 16.265625 C 2.695312 23.503906 8.566406 29.375 15.808594 29.375 C 23.050781 29.375 28.917969 23.503906 28.917969 16.265625 Z M 28.917969 16.265625 "/>
<path style=" stroke:none;fill-rule:nonzero;fill:rgb(32.156864%,91.764706%,92.941177%);fill-opacity:1;" d="M 12.785156 18.027344 C 12.785156 17.8125 12.800781 17.589844 12.835938 17.359375 C 12.894531 16.921875 12.730469 16.886719 12.957031 16.410156 C 12.351562 17.050781 11.816406 17.019531 10.957031 17.019531 C 9.65625 17.019531 8.574219 16.15625 8.207031 14.820312 C 7.691406 12.949219 9.09375 11.085938 12.742188 8.78125 C 12.808594 8.738281 12.871094 8.699219 12.9375 8.664062 L 8.445312 8.289062 L 14.992188 5.320312 C 15.394531 5.136719 15.808594 4.980469 16.21875 4.855469 C 17.3125 4.523438 19.441406 3.964844 21.417969 3.964844 C 25.027344 3.964844 26.179688 5.851562 26.542969 6.980469 C 26.660156 7.332031 26.746094 7.679688 26.796875 8.015625 C 27.074219 7.925781 27.359375 7.882812 27.652344 7.882812 C 28.320312 7.882812 28.953125 8.125 29.476562 8.585938 C 30.371094 9.371094 30.699219 10.625 30.316406 11.78125 C 29.707031 13.617188 27.707031 15.464844 25.996094 16.484375 C 25.730469 16.640625 25.449219 16.769531 25.164062 16.859375 C 25.269531 17.382812 25.246094 17.886719 25.15625 18.273438 L 25.148438 18.3125 L 25.136719 18.351562 C 24.699219 19.90625 22.972656 21.617188 19.855469 23.582031 C 17.492188 25.074219 15.140625 26.179688 15.042969 26.222656 L 12.53125 27.394531 L 13.636719 25.820312 C 10.402344 27.199219 2.449219 28.582031 2.449219 28.582031 C 2.449219 28.582031 7.90625 24.953125 11.761719 20.976562 C 12.285156 20.4375 12.78125 18.195312 12.785156 18.027344 Z M 12.785156 18.027344 "/>
<path style=" stroke:none;fill-rule:nonzero;fill:rgb(32.156864%,91.764706%,92.941177%);fill-opacity:1;" d="M 4.742188 16.34375 L 10.414062 15.378906 L 10.414062 15.078125 Z M 4.742188 16.34375 "/>
<path style=" stroke:none;fill-rule:nonzero;fill:rgb(32.156864%,91.764706%,92.941177%);fill-opacity:1;" d="M 12.457031 7.636719 L 12.609375 7.191406 L 3.90625 9 Z M 12.457031 7.636719 "/>
<path style=" stroke:none;fill-rule:nonzero;fill:rgb(32.156864%,91.764706%,92.941177%);fill-opacity:1;" d="M 6.859375 9.582031 L 14.730469 8.347656 L 14.132812 8.011719 Z M 6.859375 9.582031 "/>
<path style=" stroke:none;fill-rule:nonzero;fill:rgb(32.156864%,91.764706%,92.941177%);fill-opacity:1;" d="M 8.191406 20.261719 L 13.863281 19.292969 L 13.867188 18.992188 Z M 8.191406 20.261719 "/>
<path style=" stroke:none;fill-rule:nonzero;fill:rgb(32.156864%,91.764706%,92.941177%);fill-opacity:1;" d="M 13.539062 20.335938 L 13.691406 19.894531 L 4.984375 21.703125 Z M 13.539062 20.335938 "/>
<path style=" stroke:none;fill-rule:nonzero;fill:rgb(32.156864%,91.764706%,92.941177%);fill-opacity:1;" d="M 4.929688 23.019531 L 12.800781 21.785156 L 12.203125 21.445312 Z M 4.929688 23.019531 "/>
<path style=" stroke:none;fill-rule:nonzero;fill:rgb(32.156864%,91.764706%,92.941177%);fill-opacity:1;" d="M 9.109375 17.199219 L 14.777344 16.234375 L 14.78125 15.929688 Z M 9.109375 17.199219 "/>
<path style=" stroke:none;fill-rule:nonzero;fill:rgb(32.156864%,91.764706%,92.941177%);fill-opacity:1;" d="M 14.355469 17.289062 L 14.507812 16.84375 L 5.800781 18.652344 Z M 14.355469 17.289062 "/>
<path style=" stroke:none;fill-rule:nonzero;fill:rgb(32.156864%,91.764706%,92.941177%);fill-opacity:1;" d="M 6.917969 19.398438 L 14.789062 18.167969 L 14.191406 17.828125 Z M 6.917969 19.398438 "/>
<path style=" stroke:none;fill-rule:nonzero;fill:rgb(32.156864%,91.764706%,92.941177%);fill-opacity:1;" d="M 4.246094 13.46875 L 9.917969 12.5 L 9.917969 12.199219 Z M 4.246094 13.46875 "/>
<path style=" stroke:none;fill-rule:nonzero;fill:rgb(32.156864%,91.764706%,92.941177%);fill-opacity:1;" d="M 9.988281 13.410156 L 10.140625 12.964844 L 1.433594 14.773438 Z M 9.988281 13.410156 "/>
<path style=" stroke:none;fill-rule:nonzero;fill:rgb(32.156864%,91.764706%,92.941177%);fill-opacity:1;" d="M 2.28125 15.570312 L 10.148438 14.335938 L 9.550781 13.996094 Z M 2.28125 15.570312 "/>
<path style=" stroke:none;fill-rule:nonzero;fill:rgb(32.156864%,91.764706%,92.941177%);fill-opacity:1;" d="M 8.605469 9.953125 L 14.277344 8.988281 L 14.28125 8.683594 Z M 8.605469 9.953125 "/>
<path style=" stroke:none;fill-rule:nonzero;fill:rgb(32.156864%,91.764706%,92.941177%);fill-opacity:1;" d="M 12.816406 9.960938 L 12.96875 9.519531 L 4.261719 11.328125 Z M 12.816406 9.960938 "/>
<path style=" stroke:none;fill-rule:nonzero;fill:rgb(32.156864%,91.764706%,92.941177%);fill-opacity:1;" d="M 3.710938 12.359375 L 11.578125 11.125 L 10.984375 10.785156 Z M 3.710938 12.359375 "/>
<path style=" stroke:none;fill-rule:nonzero;fill:rgb(32.156864%,91.764706%,92.941177%);fill-opacity:1;" d="M 4.90625 25.628906 L 8.183594 25.121094 L 8.160156 24.820312 Z M 4.90625 25.628906 "/>
<path style=" stroke:none;fill-rule:nonzero;fill:rgb(32.156864%,91.764706%,92.941177%);fill-opacity:1;" d="M 9.902344 23.90625 L 9.957031 23.480469 L 4.957031 24.582031 Z M 9.902344 23.90625 "/>
<path style=" stroke:none;fill-rule:nonzero;fill:rgb(32.156864%,91.764706%,92.941177%);fill-opacity:1;" d="M 2.15625 27.257812 L 6.707031 26.65625 L 6.328125 26.273438 Z M 2.15625 27.257812 "/>
<path style=" stroke:none;fill-rule:nonzero;fill:rgb(0%,0%,0%);fill-opacity:1;" d="M 28.890625 9.25 C 28.53125 8.9375 28.105469 8.769531 27.652344 8.769531 C 27.222656 8.769531 26.804688 8.917969 26.40625 9.210938 L 26.363281 9.242188 L 26.320312 9.277344 C 26.25 9.34375 26.019531 9.566406 25.839844 9.898438 C 26.066406 9.136719 26.019531 8.246094 25.699219 7.253906 C 25.34375 6.15625 24.3125 4.851562 21.417969 4.851562 C 19.546875 4.851562 17.5 5.394531 16.476562 5.707031 C 16.09375 5.824219 15.722656 5.964844 15.359375 6.128906 L 11.925781 7.6875 L 16.125 8.035156 L 15.144531 8.808594 C 14.472656 8.910156 13.808594 9.15625 13.21875 9.53125 C 8.984375 12.203125 8.820312 13.695312 9.066406 14.585938 C 9.328125 15.539062 10.054688 16.128906 10.960938 16.128906 C 11.679688 16.128906 12.402344 15.742188 12.839844 15.125 C 13.195312 14.621094 13.3125 14.03125 13.179688 13.472656 C 14.035156 13.054688 14.847656 12.671875 15.183594 12.550781 C 15.472656 12.585938 15.964844 12.699219 16.332031 12.828125 C 16.136719 13.140625 15.863281 13.53125 15.644531 13.851562 C 14.601562 15.367188 13.851562 16.511719 13.714844 17.484375 C 13.671875 17.785156 13.664062 18.070312 13.683594 18.335938 L 13.1875 20.117188 C 12.753906 21.691406 10.691406 23.375 9.933594 23.890625 L 9.9375 23.898438 L 5.640625 27.242188 L 10.871094 25.875 C 13.335938 25.148438 15.042969 23.890625 16.109375 22.851562 L 14.667969 25.414062 C 15.304688 25.117188 23.402344 21.25 24.28125 18.109375 L 24.285156 18.085938 L 24.292969 18.066406 C 24.40625 17.582031 24.371094 16.8125 23.921875 16.171875 C 24.503906 16.160156 25.050781 16.007812 25.542969 15.714844 C 27.0625 14.8125 28.941406 13.109375 29.472656 11.5 C 29.746094 10.683594 29.515625 9.800781 28.890625 9.25 Z M 25.628906 10.433594 C 25.640625 10.40625 25.652344 10.378906 25.667969 10.351562 C 25.625 10.527344 25.601562 10.714844 25.625 10.917969 C 25.636719 11.039062 25.664062 11.203125 25.738281 11.378906 C 25.121094 11.792969 24.5625 12.109375 24.265625 12.214844 C 24.199219 12.15625 24.113281 12.074219 24.046875 12.011719 C 24.027344 11.992188 24.007812 11.976562 23.988281 11.957031 C 24.753906 11.589844 25.292969 11.085938 25.628906 10.433594 Z M 25.628906 10.433594 "/>
<path style=" stroke:none;fill-rule:nonzero;fill:url(#linear0);" d="M 28.15625 10.085938 C 27.914062 9.871094 27.550781 9.75 27.0625 10.105469 C 27.0625 10.105469 26.261719 10.820312 27.136719 11.339844 C 27.136719 11.339844 27.335938 11.476562 27.59375 11.414062 C 27.59375 11.414062 25.214844 13.261719 24.246094 13.351562 C 23.457031 13.429688 23.125 12.15625 21.617188 11.820312 C 19.917969 11.445312 20.570312 10.808594 18.347656 10.144531 C 17.164062 9.789062 16.125 9.800781 15.410156 9.890625 C 14.839844 9.960938 14.296875 10.164062 13.8125 10.46875 C 12.566406 11.257812 9.820312 13.140625 10.136719 14.292969 C 10.542969 15.773438 12.445312 14.699219 12.074219 13.648438 L 11.679688 12.980469 C 11.679688 12.980469 14.726562 11.425781 15.085938 11.425781 C 15.445312 11.425781 17.691406 11.835938 17.679688 12.550781 C 17.667969 13.265625 15.011719 16.230469 14.8125 17.636719 C 14.667969 18.699219 14.777344 20.734375 20.183594 18.585938 C 20.183594 18.585938 21.332031 18.03125 20.914062 18.5 C 20.492188 18.96875 16.679688 23.242188 16.679688 23.242188 C 16.679688 23.242188 22.445312 20.550781 23.210938 17.808594 C 23.210938 17.808594 23.765625 15.464844 19.617188 16.367188 L 16.699219 17.207031 C 16.699219 17.207031 17.113281 16.730469 18.410156 16.40625 C 19.832031 16.050781 21.292969 14.980469 21.691406 14.242188 C 21.691406 14.242188 23.457031 15.660156 24.976562 14.761719 C 26.300781 13.976562 27.996094 12.433594 28.421875 11.148438 C 28.542969 10.773438 28.457031 10.347656 28.15625 10.085938 Z M 28.15625 10.085938 "/>
<path style=" stroke:none;fill-rule:nonzero;fill:url(#linear1);" d="M 16.582031 20.5625 C 14.828125 20.984375 14.261719 20.414062 14.261719 20.414062 C 13.617188 22.738281 10.558594 24.8125 10.558594 24.8125 C 14.828125 23.550781 16.582031 20.5625 16.582031 20.5625 Z M 16.582031 20.5625 "/>
<path style=" stroke:none;fill-rule:nonzero;fill:url(#linear2);" d="M 24.640625 7.59375 C 23.585938 4.335938 16.199219 6.964844 16.199219 6.964844 C 16.199219 6.964844 19.902344 7.1875 20.050781 7.445312 C 20.050781 7.445312 17.921875 8.039062 17.660156 8.242188 C 17.660156 8.242188 19.640625 8.207031 19.808594 8.929688 C 19.964844 9.605469 19.925781 10.933594 21.828125 11.25 C 22.117188 11.296875 22.640625 11.277344 22.921875 11.1875 C 24.011719 10.835938 25.433594 10.035156 24.640625 7.59375 Z M 22.878906 10.160156 C 22.0625 10.160156 21.402344 9.480469 21.402344 8.640625 C 21.402344 7.800781 22.0625 7.121094 22.878906 7.121094 C 23.695312 7.121094 24.355469 7.800781 24.355469 8.640625 C 24.355469 9.480469 23.695312 10.160156 22.878906 10.160156 Z M 22.878906 10.160156 "/>
<path style=" stroke:none;fill-rule:nonzero;fill:url(#linear3);" d="M 23.511719 8.65625 C 23.511719 8.285156 23.230469 7.984375 22.878906 7.984375 C 22.527344 7.984375 22.246094 8.285156 22.246094 8.65625 C 22.246094 9.023438 22.527344 9.324219 22.878906 9.324219 C 23.230469 9.324219 23.511719 9.023438 23.511719 8.65625 Z M 23.511719 8.65625 "/>
<path style=" stroke:none;fill-rule:nonzero;fill:rgb(100%,100%,100%);fill-opacity:1;" d="M 25.300781 23.101562 C 25.292969 23.03125 25.28125 22.957031 25.269531 22.890625 C 25.230469 22.671875 25.214844 22.445312 25.144531 22.238281 C 25 21.804688 24.6875 21.550781 24.238281 21.472656 C 24.0625 21.441406 23.894531 21.414062 23.71875 21.382812 C 23.816406 21.367188 23.910156 21.351562 24.007812 21.332031 C 24.171875 21.304688 24.339844 21.292969 24.492188 21.226562 C 24.882812 21.0625 25.121094 20.769531 25.195312 20.351562 C 25.238281 20.125 25.273438 19.894531 25.316406 19.664062 C 25.328125 19.742188 25.339844 19.820312 25.351562 19.898438 C 25.390625 20.113281 25.410156 20.335938 25.480469 20.542969 C 25.621094 20.964844 25.929688 21.210938 26.367188 21.289062 C 26.542969 21.320312 26.71875 21.347656 26.894531 21.386719 C 26.722656 21.414062 26.550781 21.445312 26.378906 21.472656 C 26.113281 21.511719 25.894531 21.625 25.710938 21.820312 C 25.539062 22.003906 25.441406 22.222656 25.40625 22.472656 C 25.382812 22.664062 25.347656 22.855469 25.320312 23.042969 C 25.316406 23.0625 25.316406 23.082031 25.3125 23.097656 C 25.308594 23.101562 25.304688 23.101562 25.300781 23.101562 Z M 25.300781 23.101562 "/>
<path style=" stroke:none;fill-rule:nonzero;fill:rgb(100%,100%,100%);fill-opacity:1;" d="M 5.15625 18.660156 C 5.152344 18.621094 5.144531 18.582031 5.140625 18.542969 C 5.117188 18.417969 5.105469 18.289062 5.066406 18.167969 C 4.984375 17.921875 4.808594 17.773438 4.546875 17.730469 C 4.449219 17.714844 4.351562 17.695312 4.253906 17.679688 C 4.308594 17.667969 4.359375 17.660156 4.417969 17.652344 C 4.511719 17.632812 4.605469 17.628906 4.695312 17.589844 C 4.917969 17.496094 5.054688 17.328125 5.097656 17.089844 C 5.121094 16.957031 5.140625 16.828125 5.164062 16.695312 C 5.171875 16.738281 5.179688 16.785156 5.1875 16.828125 C 5.210938 16.953125 5.21875 17.082031 5.257812 17.199219 C 5.339844 17.441406 5.515625 17.578125 5.765625 17.625 C 5.867188 17.640625 5.96875 17.660156 6.070312 17.679688 C 5.96875 17.699219 5.871094 17.714844 5.773438 17.730469 C 5.625 17.753906 5.496094 17.820312 5.390625 17.929688 C 5.292969 18.035156 5.238281 18.160156 5.21875 18.304688 C 5.203125 18.414062 5.1875 18.519531 5.167969 18.628906 C 5.167969 18.640625 5.167969 18.652344 5.164062 18.660156 C 5.164062 18.660156 5.160156 18.660156 5.15625 18.660156 Z M 5.15625 18.660156 "/>
<path style=" stroke:none;fill-rule:nonzero;fill:rgb(100%,100%,100%);fill-opacity:1;" d="M 17.945312 27.132812 C 17.941406 27.101562 17.9375 27.070312 17.929688 27.039062 C 17.914062 26.941406 17.90625 26.839844 17.875 26.746094 C 17.808594 26.554688 17.671875 26.441406 17.46875 26.40625 C 17.390625 26.390625 17.3125 26.378906 17.238281 26.363281 C 17.28125 26.355469 17.320312 26.351562 17.367188 26.34375 C 17.4375 26.328125 17.515625 26.324219 17.582031 26.292969 C 17.757812 26.21875 17.863281 26.089844 17.898438 25.902344 C 17.917969 25.800781 17.933594 25.695312 17.953125 25.59375 C 17.957031 25.628906 17.964844 25.664062 17.96875 25.699219 C 17.988281 25.792969 17.992188 25.894531 18.023438 25.988281 C 18.085938 26.175781 18.226562 26.285156 18.421875 26.320312 C 18.5 26.335938 18.578125 26.347656 18.660156 26.367188 C 18.582031 26.378906 18.503906 26.390625 18.429688 26.402344 C 18.308594 26.421875 18.210938 26.472656 18.128906 26.558594 C 18.050781 26.640625 18.007812 26.738281 17.992188 26.851562 C 17.980469 26.9375 17.964844 27.023438 17.953125 27.109375 C 17.953125 27.117188 17.949219 27.125 17.949219 27.132812 C 17.949219 27.132812 17.945312 27.132812 17.945312 27.132812 Z M 17.945312 27.132812 "/>
</g>
</svg>
